# xmcd
# 
# Track frame offsets:
#     150
#     13089
#     32967
#     51443
#     73401
#     90642
#     106395
#     128446
#     178441
#     193707
#     211199
#     226668
#     241144
#     260639
#     304767
#     326408
# 
# Disc length: 4556
# 
# Revision: 2
# Processed by: cddbd v1.5.2PL0 Copyright (c) Steve Scherf et al.
# Submitted via: fre:ac v1.0.31
# 
DISCID=e311ca10
DTITLE=Pentangle - Reflection
DYEAR=2017
DGENRE=Folk
TTITLE0=Wedding Dress
TTITLE1=Omie Wise
TTITLE2=Will The Circle Be Unbroken?
TTITLE3=When I Get Home
TTITLE4=Rain And Snow
TTITLE5=Helping Hand
TTITLE6=So Clear
TTITLE7=Reflection
TTITLE8=Shake Shake Mama
TTITLE9=Kokomo Blues
TTITLE10=Faro Annie
TTITLE11=Back On The Road Again
TTITLE12=Will The Circle Be Unbroken? [Take 3, Live Vox]
TTITLE13=Reflection [Command Studios, Take 1]
TTITLE14=John's Song (alias So Clear) [Take 5, Fuzz Guitar]
TTITLE15=Wondrous Love
EXTD=
EXTT0=
EXTT1=
EXTT2=
EXTT3=
EXTT4=
EXTT5=
EXTT6=
EXTT7=
EXTT8=
EXTT9=
EXTT10=
EXTT11=
EXTT12=
EXTT13=
EXTT14=
EXTT15=
PLAYORDER=
